# xmcd
#
# Track frame offsets:
#	150
#	18565
#	40520
#	59675
#	84052
#	96375
#	105680
#	121495
#	129367
#	149525
#	162725
#	172957
#
# Disc length: 2604 seconds
#
# Revision: 1
# Processed by: cddbd v1.5.1PL0 Copyright (c) Steve Scherf et al.
# Submitted via: CDex 1.50Beta5
#
DISCID=a10a2a0c
DTITLE=倉本裕基 - アンソロジー
DYEAR=2000
DGENRE=
TTITLE0=成功への航海
TTITLE1=エリュシオン
TTITLE2=優雅なワルツ
TTITLE3=庭園の一景
TTITLE4=ほのかな愛
TTITLE5=曳航
TTITLE6=悲しみのバルカローレ
TTITLE7=岬の情景
TTITLE8=エメラルド・レイク
TTITLE9=優しい時を待って
TTITLE10=霧のレイクルイーズ
TTITLE11=栄光の歩み
EXTD=
EXTT0=
EXTT1=
EXTT2=
EXTT3=
EXTT4=
EXTT5=
EXTT6=
EXTT7=
EXTT8=
EXTT9=
EXTT10=
EXTT11=
PLAYORDER=
